<svg class="close-icon" xmlns="http://www.w3.org/2000/svg" viewBox="0 0 48.289 46.247"><path id="Path_88" d="m45.608,7.049c-3.633,3.272-7.723,5.998-12.141,8.093-9.466,5.101-20.198,10.878-25.894,29.004l-5.531-1.72C8.45,22.039,20.802,15.383,30.732,10.041c5.36-2.886,9.985-5.384,12.766-9.465l4.79,3.247c-.79,1.158-1.688,2.238-2.681,3.226Z"/><path id="Path_90" d="m37.098,43.567c-3.271-3.634-5.998-7.724-8.093-12.141C23.903,21.96,18.127,11.227,0,5.532L1.721,0c20.387,6.409,27.041,18.764,32.39,28.687,2.884,5.362,5.374,9.987,9.466,12.767l-3.25,4.793c-1.158-.79-2.239-1.687-3.229-2.68Z"/></svg>