<svg class="go-down-button" xmlns="http://www.w3.org/2000/svg" viewBox="0 0 69.988 62.964"><path id="Subtraction_1" d="m43.836,62.956c-1.239,0-2.537-.048-3.858-.144-7.157-.518-12.878-1.029-17.537-1.843-4.816-.841-8.3-1.99-10.974-3.616-2.803-1.724-5.051-4.218-6.475-7.185-1.53-2.98-2.777-6.851-4.042-12.553-1.128-4.588-1.254-9.366-.367-14.007.841-3.935,2.691-7.585,5.368-10.589,2.902-3.155,6.389-5.715,10.269-7.537,4.574-2.17,9.386-3.797,14.338-4.849,6.218-1.427,12.745-.421,18.245,2.811,3.805,2.199,7.199,5.041,10.033,8.4,2.742,3.194,5.088,6.708,6.986,10.466,1.586,3.046,2.768,6.286,3.516,9.638.75,3.76.851,7.621.3,11.416-.539,4.168-2.205,8.109-4.818,11.4-2.156,2.595-4.917,4.619-8.04,5.894-4.12,1.615-8.52,2.396-12.944,2.298ZM21.557,28.695h0l13.1,13.873,13.1-13.873s-26.2,0-26.2,0Z"/></svg>