<svg class="hamburger" xmlns="http://www.w3.org/2000/svg" viewBox="0 0 60 42.545"><path id="Path_88" d="m55.822,12.034c-4.883-.255-9.703-1.22-14.308-2.862C31.214,6.086,19.541,2.582,2.695,11.371L0,6.244C18.948-3.641,32.389.387,43.189,3.631c5.831,1.749,10.867,3.253,15.72,2.335l1.091,5.684c-1.377.26-2.776.389-4.177.385Z"/><path id="Path_89" d="m55.82,27.288c-4.883-.256-9.702-1.219-14.308-2.86-10.298-3.087-21.972-6.594-38.817,2.199l-2.694-5.127c18.945-9.883,32.386-5.854,43.186-2.618,5.833,1.745,10.87,3.254,15.723,2.332l1.091,5.685c-1.378.261-2.778.392-4.18.389Z"/><path id="Path_90" d="m55.822,42.545c-4.883-.256-9.702-1.221-14.308-2.862-10.3-3.086-21.974-6.591-38.819,2.199l-2.694-5.128c18.948-9.885,32.389-5.853,43.188-2.618,5.831,1.752,10.862,3.262,15.721,2.335l1.091,5.687c-1.377.26-2.776.39-4.178.388Z"/></svg>