<svg class="hero-wave-front" xmlns="http://www.w3.org/2000/svg" viewBox="0 0 6000 600"><path id="Path_1" class="cls-1" d="m-468.229,343.02C-145.883,160.62,306.871,151.739,532.287,184.921c225.416,33.182,386.62,142.823,794.431,120.918s474.1-34.861,995.85-201.649,956.226,171.795,1229.311,172.783,457.824-149.2,724.854-121.2,197.911,213.394,435.333,169.786,148.123-291.25,548.357-247.483,477.58,324.76,998.327,292.381S6880.429,46.421,7242.229,8.197s751.125,63.84,1002.97,169.363c251.846,105.523,1094.845,337.188,1647.221,303.2s1072.877-170.2,1072.877-170.2v569.007H-1040.69V271.116s250.113,254.301,572.461,71.904Z"/></svg>