<?xml version="1.0" encoding="UTF-8"?><svg id="Layer_1" xmlns="http://www.w3.org/2000/svg" viewBox="0 0 1000 999.476"><path d="m315.275,305.807c-24.174,45.101-51.942,96.911-79.593,149.826,10.07-.263,17.863-.335,22.709-.127,59.404,2.583,91.64,25.544,95.119,28.154,10.804,8.1,12.995,23.429,4.892,34.233-4.805,6.404-12.151,9.782-19.58,9.782-5.106,0-10.256-1.592-14.655-4.892-.005.003-23.602-16.493-67.901-18.419-7.01-.293-24.615.238-46.382,1.076-57.898,112.882-110.034,222.89-120.698,276.211-20.851,104.23,21.717,172.178,22.15,172.852,7.265,11.324,4.049,26.445-7.237,33.767-4.125,2.679-8.755,3.961-13.324,3.961-7.938,0-15.707-3.865-20.391-11.001-2.224-3.386-54.123-84.337-29.157-209.172,10.952-54.745,57.695-156.126,112.544-264.316-43.382,1.785-92.544,3.632-129.319,3.632-13.505,0-24.451-10.949-24.451-24.454s10.946-24.454,24.451-24.454c41.577,0,100.252-2.452,147.395-4.424,2.561-.107,5.087-.213,7.58-.316,31.285-60.351,63.746-120.922,92.744-175.022,25.508-47.584,47.532-88.676,62.346-117.767,41.648-81.809,36.548-103.331,33.995-107.98-1.441-2.63-7.155-6.144-26.166-7.955-25.371-2.364-91.952,26.396-156.397,54.257-40.158,17.362-85.679,37.041-130.878,53.783-12.672,4.692-26.735-1.781-31.42-14.439-4.695-12.664,1.77-26.73,14.436-31.422,43.976-16.288,86.923-34.855,128.456-52.811C246.223,23.923,309.227-3.272,346.98.319c14.589,1.389,48.759,4.643,64.39,33.085,16.37,29.784,6.415,75.755-33.277,153.72-15.044,29.551-37.183,70.854-62.817,118.682Zm670.27-149.54c-12.338-5.522-26.79-.011-32.318,12.313-5.626,12.554-11.856,26.396-18.556,41.273-36.92,82.006-87.789,195.004-129.905,297.454-67.46,2.607-140.268,13.739-209.41,27.956,4.651-11.444,9.188-22.615,13.554-33.363,10.486-25.82,20.106-49.504,28.302-69.537,22.133-54.109,43.659-99.844,59.377-133.236,9.248-19.652,16.556-35.175,21.29-46.62,5.314-12.85,14.211-34.359-3.457-47.622-18.205-13.658-36.821,2.745-43.829,8.927-7.15,6.309-71.928,62.746-144.404,101.573-30.499,16.334-63.568,32.567-132.357,51.545-13.017,3.591-20.66,17.055-17.071,30.075,3.588,13.02,17.049,20.657,30.077,17.068,66.411-18.32,103.742-34.849,142.443-55.577,34.449-18.457,67.189-40.572,93.585-60.018-14.617,31.263-32.51,70.372-50.918,115.368-8.207,20.065-17.844,43.79-28.346,69.652-8.253,20.318-17.101,42.101-26.242,64.532-77.905,18.229-147.127,38.497-192.807,51.885-12.962,3.797-20.386,17.383-16.589,30.343,3.123,10.664,12.875,17.581,23.454,17.581,2.279,0,4.591-.32,6.887-.994,38.254-11.213,93.508-27.391,156.252-43.031-31.452,76.637-63.51,153.31-85.189,200.28-5.659,12.261-.312,26.79,11.954,32.45,3.315,1.531,6.799,2.257,10.228,2.257,9.242,0,18.09-5.268,22.216-14.211,25.122-54.421,63.655-147.36,99.299-234.612,68.986-15.381,142.996-28.355,211.599-32.814-23.799,60.321-42.848,114.021-51.8,151.335-28.669,119.446-24.04,178.034-17.038,266.721l.137,1.728c1.008,12.809,11.713,22.531,24.347,22.531.646,0,1.298-.025,1.95-.077,13.466-1.063,23.514-12.839,22.451-26.3l-.137-1.731c-6.87-87.024-11.017-139.55,15.844-251.461,9.398-39.162,30.883-98.237,57.473-164.36,25.856.203,50.449,1.96,73.027,5.777,13.346,2.265,25.936-6.719,28.187-20.035s-6.722-25.936-20.035-28.187c-19.326-3.264-39.933-5.122-61.368-5.921,40.12-96.332,87.019-200.511,121.567-277.253,6.706-14.904,12.951-28.771,18.589-41.347,5.522-12.321.011-26.79-12.31-32.315Z"/></svg>